<svg xmlns="http://www.w3.org/2000/svg" viewBox="0 0 512 512" role="img" aria-label="護眼學堂">
  <rect width="512" height="512" rx="96" fill="#FEF7E5"/>
  <rect x="16" y="16" width="480" height="480" rx="86" fill="none" stroke="#0A3558" stroke-width="14"/>
  <path
    d="M78 258c72-128 284-128 356 0-72 128-284 128-356 0z"
    fill="#FEF7E5"
    stroke="#0A3558"
    stroke-width="22"
    stroke-linejoin="round"
  />
  <circle cx="256" cy="258" r="100" fill="#0A3558"/>
  <path d="M184 226c30 10 54 18 72 22v84c-20-8-48-18-72-26z" fill="#F6E7C9"/>
  <path d="M328 226c-30 10-54 18-72 22v84c20-8 48-18 72-26z" fill="#E5D0A8"/>
  <path d="M256 248v84" stroke="#0A3558" stroke-width="6" stroke-linecap="round"/>
  <circle cx="304" cy="228" r="12" fill="#F7F1E4"/>
</svg>
