<svg xmlns="http://www.w3.org/2000/svg" viewBox="0 0 64 64" role="img" aria-label="Dr Poon eye mark">
  <defs>
    <radialGradient id="bg" cx="32%" cy="24%" r="82%">
      <stop offset="0%" stop-color="#0B4E78"/>
      <stop offset="100%" stop-color="#001526"/>
    </radialGradient>
    <radialGradient id="iris" cx="36%" cy="32%" r="68%">
      <stop offset="0%" stop-color="#F4E4B6"/>
      <stop offset="28%" stop-color="#D4B36A"/>
      <stop offset="62%" stop-color="#B0893A"/>
      <stop offset="100%" stop-color="#5C4316"/>
    </radialGradient>
  </defs>
  <rect width="64" height="64" rx="16" fill="url(#bg)"/>
  <rect x="3.2" y="3.2" width="57.6" height="57.6" rx="13.4" fill="none" stroke="#E0C27A" stroke-width="1.35"/>
  <path d="M7.8 32C16.2 17.6 24.2 13 32 13s15.8 4.6 24.2 19C47.8 46.4 39.8 51 32 51S16.2 46.4 7.8 32z" fill="none" stroke="#E8C97A" stroke-width="1.7" stroke-linejoin="round"/>
  <circle cx="32" cy="32" r="13.1" fill="url(#iris)"/>
  <g stroke="#6F521C" stroke-width="0.55" opacity="0.55">
    <path d="M32 19.4v5.2M32 39.4v5.2M19.4 32h5.2M39.4 32h5.2"/>
    <path d="M23.1 23.1l3.6 3.6M37.3 37.3l3.6 3.6M40.9 23.1l-3.6 3.6M26.7 37.3l-3.6 3.6"/>
  </g>
  <circle cx="32" cy="32" r="5.35" fill="#06141C"/>
  <circle cx="32" cy="32" r="2.05" fill="#0A1C26"/>
  <circle cx="36.2" cy="28.3" r="2.05" fill="#F7EED2"/>
  <circle cx="28.6" cy="35.4" r="0.85" fill="#F3E2B4" opacity="0.55"/>
</svg>
